<?xml version="1.0" encoding="UTF-8" standalone="no"?><!DOCTYPE svg PUBLIC "-//W3C//DTD SVG 1.1//EN" "http://www.w3.org/Graphics/SVG/1.1/DTD/svg11.dtd"><svg width="100%" height="100%" viewBox="0 0 64 64" version="1.1" xmlns="http://www.w3.org/2000/svg" xmlns:xlink="http://www.w3.org/1999/xlink" xml:space="preserve" xmlns:serif="http://www.serif.com/" style="fill-rule:evenodd;clip-rule:evenodd;stroke-linejoin:round;stroke-miterlimit:2;"><g id="ic_check_circle_o_s"><rect x="0" y="0" width="64" height="64" style="fill:none;fill-rule:nonzero;"/><circle cx="32" cy="32" r="27" style="fill:#f7f7f7;"/><path d="M32,8c13.246,0 24,10.754 24,24c0,13.246 -10.754,24 -24,24c-13.246,0 -24,-10.754 -24,-24c0,-13.246 10.754,-24 24,-24Zm0,3c11.59,0 21,9.41 21,21c0,11.59 -9.41,21 -21,21c-11.59,0 -21,-9.41 -21,-21c0,-11.59 9.41,-21 21,-21Zm-5.615,27.789l-6.08,-6.079c-0.683,-0.684 -1.787,-0.684 -2.47,0c-0.684,0.683 -0.684,1.787 0,2.47l7.323,7.324c0.683,0.683 1.787,0.683 2.471,0l18.536,-18.537c0.684,-0.684 0.684,-1.787 0,-2.471c-0.683,-0.683 -1.787,-0.683 -2.47,0l-17.31,17.293Z" style="fill:#2FC9B9;"/></g></svg>