<?xml version="1.0" encoding="UTF-8" standalone="no"?><!DOCTYPE svg PUBLIC "-//W3C//DTD SVG 1.1//EN" "http://www.w3.org/Graphics/SVG/1.1/DTD/svg11.dtd"><svg width="100%" height="100%" viewBox="0 0 65 64" version="1.1" xmlns="http://www.w3.org/2000/svg" xmlns:xlink="http://www.w3.org/1999/xlink" xml:space="preserve" xmlns:serif="http://www.serif.com/" style="fill-rule:evenodd;clip-rule:evenodd;stroke-linejoin:round;stroke-miterlimit:2;"><g id="ic_chat_f"><rect x="0.694" y="0" width="64" height="64" style="fill:none;"/><path d="M52.01,7.855l-38.631,0c-2.656,0 -4.805,2.173 -4.805,4.829l-0.024,43.461l9.658,-9.658l33.802,0c2.656,0 4.829,-2.173 4.829,-4.829l0,-28.974c0,-2.656 -2.173,-4.829 -4.829,-4.829Zm-31.388,16.902l24.145,0c1.328,0 2.414,1.086 2.414,2.414c0,1.328 -1.086,2.415 -2.414,2.415l-24.145,0c-1.328,0 -2.414,-1.087 -2.414,-2.415c0,-1.328 1.086,-2.414 2.414,-2.414Zm14.487,12.072l-14.487,0c-1.328,0 -2.414,-1.087 -2.414,-2.415c0,-1.327 1.086,-2.414 2.414,-2.414l14.487,0c1.328,0 2.414,1.087 2.414,2.414c0,1.328 -1.086,2.415 -2.414,2.415Zm9.658,-14.487l-24.145,0c-1.328,0 -2.414,-1.086 -2.414,-2.414c0,-1.328 1.086,-2.415 2.414,-2.415l24.145,0c1.328,0 2.414,1.087 2.414,2.415c0,1.328 -1.086,2.414 -2.414,2.414Z" style="fill:#2FC9B9;"/></g></svg>