<?xml version="1.0" encoding="UTF-8" standalone="no"?><!DOCTYPE svg PUBLIC "-//W3C//DTD SVG 1.1//EN" "http://www.w3.org/Graphics/SVG/1.1/DTD/svg11.dtd"><svg width="100%" height="100%" viewBox="0 0 65 65" version="1.1" xmlns="http://www.w3.org/2000/svg" xmlns:xlink="http://www.w3.org/1999/xlink" xml:space="preserve" xmlns:serif="http://www.serif.com/" style="fill-rule:evenodd;clip-rule:evenodd;stroke-linejoin:round;stroke-miterlimit:2;"><g id="ic_three"><rect x="0.869" y="0.91" width="64" height="64" style="fill:none;fill-rule:nonzero;"/><g><path d="M27.469,5.325c4.28,-0.45 8.67,-0.71 12.88,0.41c0.15,2.27 -1.32,5.31 0.79,7.03c4.47,3.46 11.37,2.43 15.03,7.15c2.55,3.15 1.28,7.34 2,10.96c1.87,4.98 2.66,11.07 -0.42,15.74c-1.47,2.74 -3.59,5.06 -5.76,7.27c-0.17,-4.8 0.03,-9.75 -1.92,-14.25c-1.61,3.16 -2.9,6.71 -2.06,10.3c0,2.16 1.19,4.73 0.03,6.67c-8.37,5.67 -19.85,5.5 -28.58,0.67c-0.14,-3.18 0.64,-6.29 0.91,-9.44c0.2,-2.95 -1.34,-5.6 -2.53,-8.2c-2.13,4.84 -1.57,10.13 -1.76,15.26c-3.55,-2.8 -6.27,-6.47 -8.28,-10.49c0.1,-0.83 0.3,-2.48 0.4,-3.31c-0.57,-0.04 -1.71,-0.12 -2.28,-0.16l2.19,-0.15c-0.44,-3.8 0.93,-7.31 1.94,-10.88c-0.29,-3.66 -0.49,-7.92 2.3,-10.75c4.16,-4.06 10.94,-2.85 15.13,-6.8c0.96,-2.24 0.2,-4.72 -0.01,-7.03m10.43,16c-0.8,0.83 -1.59,1.65 -2.39,2.47c-0.02,2.14 -0.11,4.29 0.11,6.43c0.61,1.41 2.04,2.25 3.08,3.34c1.93,-0.04 3.88,-0.05 5.82,-0.05c1.08,-1.03 2.15,-2.07 3.24,-3.1c0.11,-3.26 0.09,-6.66 -2.43,-9.08c-2.48,0 -4.96,-0.02 -7.43,-0.01Z" style="fill:#616161;fill-rule:nonzero;"/><path d="M37.899,21.325c2.47,-0.01 4.95,0.01 7.43,0.01c2.52,2.42 2.54,5.82 2.43,9.08c-1.09,1.03 -2.16,2.07 -3.24,3.1c-1.94,0 -3.89,0.01 -5.82,0.05c-1.04,-1.09 -2.47,-1.93 -3.08,-3.34c-0.22,-2.14 -0.13,-4.29 -0.11,-6.43c0.8,-0.82 1.59,-1.64 2.39,-2.47Z" style="fill:#c83a56;fill-rule:nonzero;"/></g></g></svg>