<?xml version="1.0" encoding="UTF-8" standalone="no"?><!DOCTYPE svg PUBLIC "-//W3C//DTD SVG 1.1//EN" "http://www.w3.org/Graphics/SVG/1.1/DTD/svg11.dtd"><svg width="100%" height="100%" viewBox="0 0 65 64" version="1.1" xmlns="http://www.w3.org/2000/svg" xmlns:xlink="http://www.w3.org/1999/xlink" xml:space="preserve" xmlns:serif="http://www.serif.com/" style="fill-rule:evenodd;clip-rule:evenodd;stroke-linejoin:round;stroke-miterlimit:2;"><g id="ic_caleandar_f"><rect x="0.694" y="0" width="64" height="64" style="fill:none;"/><path d="M35.361,37.333l0,16c0,1.467 1.2,2.667 2.667,2.667l16,0c1.466,0 2.666,-1.2 2.666,-2.667l0,-16c0,-1.466 -1.2,-2.666 -2.666,-2.666l-16,0c-1.467,0 -2.667,1.2 -2.667,2.666Zm-24,18.667l16,0c1.467,0 2.667,-1.2 2.667,-2.667l0,-16c0,-1.466 -1.2,-2.666 -2.667,-2.666l-16,0c-1.467,0 -2.667,1.2 -2.667,2.666l0,16c0,1.467 1.2,2.667 2.667,2.667Zm-2.667,-45.333l0,16c0,1.466 1.2,2.666 2.667,2.666l16,0c1.467,0 2.667,-1.2 2.667,-2.666l0,-16c0,-1.467 -1.2,-2.667 -2.667,-2.667l-16,0c-1.467,0 -2.667,1.2 -2.667,2.667Zm33,12.17l-3.47,-3.47c-0.39,-0.39 -1.02,-0.39 -1.41,0c-0.39,0.39 -0.39,1.02 0,1.41l4.18,4.18c0.39,0.39 1.02,0.39 1.41,0l10.58,-10.58c0.39,-0.39 0.39,-1.02 0,-1.41c-0.39,-0.39 -1.02,-0.39 -1.41,0l-9.88,9.87Z" style="fill:#2FC9B9;"/></g></svg>