<?xml version="1.0" encoding="UTF-8" standalone="no"?><!DOCTYPE svg PUBLIC "-//W3C//DTD SVG 1.1//EN" "http://www.w3.org/Graphics/SVG/1.1/DTD/svg11.dtd"><svg width="100%" height="100%" viewBox="0 0 65 64" version="1.1" xmlns="http://www.w3.org/2000/svg" xmlns:xlink="http://www.w3.org/1999/xlink" xml:space="preserve" xmlns:serif="http://www.serif.com/" style="fill-rule:evenodd;clip-rule:evenodd;stroke-linejoin:round;stroke-miterlimit:2;"><g id="ic_clinic_o"><rect x="0.694" y="0" width="64" height="64" style="fill:none;"/><path d="M40.94,20l0,-6.852c0,-1.517 -1.231,-2.748 -2.749,-2.748c-6.089,0 -20.659,0 -26.748,0c-0.729,0 -1.428,0.29 -1.944,0.805c-0.515,0.515 -0.805,1.215 -0.805,1.943c0,7.785 0,29.919 0,37.704c0,0.728 0.29,1.428 0.805,1.943c0.516,0.515 1.215,0.805 1.944,0.805c8.459,0 34.043,0 42.503,0c1.518,0 2.748,-1.231 2.748,-2.748c0,-6.313 0,-21.791 0,-28.104c0,-1.517 -1.23,-2.748 -2.748,-2.748c-4.515,0 -13.006,0 -13.006,0Zm10.954,28.8l-10.954,0l0,-24l10.954,0l0,24Zm-19.762,-8.094l-14.63,0l0,8.094l14.63,0l0,-8.094Zm16.795,-1.506l-4.8,0l0,4.8l4.8,0l0,-4.8Zm-12.787,-2.4l-22.646,0l0,-21.6l22.646,0l0,21.6Zm-3.859,-12.129c0.899,0 1.631,0.732 1.631,1.631l0,0.097c0,0.899 -0.732,1.631 -1.631,1.631l-5.698,0l0,5.674c0,0.899 -0.732,1.631 -1.631,1.631l-0.08,0c-0.921,0.017 -1.648,-0.734 -1.648,-1.631c0,0 0,-5.674 0,-5.674l-5.674,0c-0.92,0 -1.656,-0.736 -1.656,-1.655l0,-0.073c0.017,-0.891 0.751,-1.631 1.656,-1.631c0,0 5.674,0 5.674,0l0,-5.699c0,-0.9 0.737,-1.631 1.655,-1.631l0.073,0c0.899,0 1.631,0.733 1.631,1.631c0,0 0,5.699 0,5.699l5.698,0Zm16.646,4.929l-4.8,0l0,4.8l4.8,0l0,-4.8Z" style="fill:#616161;"/></g></svg>