<?xml version="1.0" encoding="UTF-8" standalone="no"?><!DOCTYPE svg PUBLIC "-//W3C//DTD SVG 1.1//EN" "http://www.w3.org/Graphics/SVG/1.1/DTD/svg11.dtd"><svg width="100%" height="100%" viewBox="0 0 65 64" version="1.1" xmlns="http://www.w3.org/2000/svg" xmlns:xlink="http://www.w3.org/1999/xlink" xml:space="preserve" xmlns:serif="http://www.serif.com/" style="fill-rule:evenodd;clip-rule:evenodd;stroke-linejoin:round;stroke-miterlimit:2;"><g id="ic_add_square_o"><rect x="0.694" y="0" width="64" height="64" style="fill:none;"/><path d="M51.361,8l-37.333,0c-2.947,0 -5.334,2.387 -5.334,5.333l0,37.334c0,2.946 2.387,5.333 5.334,5.333l37.333,0c2.947,0 5.333,-2.387 5.333,-5.333l0,-37.334c0,-2.946 -2.386,-5.333 -5.333,-5.333Zm0,3c1.289,0 2.333,1.044 2.333,2.333l0,37.334c0,1.289 -1.044,2.333 -2.333,2.333c0,0 -37.333,0 -37.333,0c-1.29,0 -2.334,-1.044 -2.334,-2.333l0,-37.334c0,-1.289 1.044,-2.333 2.334,-2.333l37.333,0Zm-5.333,23.667l-10.667,0l0,10.666l-5.333,0l0,-10.666l-10.667,0l0,-5.334l10.667,0l0,-10.666l5.333,0l0,10.666l10.667,0l0,5.334Z" style="fill:#616161;"/></g></svg>