<?xml version="1.0" encoding="UTF-8" standalone="no"?><!DOCTYPE svg PUBLIC "-//W3C//DTD SVG 1.1//EN" "http://www.w3.org/Graphics/SVG/1.1/DTD/svg11.dtd"><svg width="100%" height="100%" viewBox="0 0 65 64" version="1.1" xmlns="http://www.w3.org/2000/svg" xmlns:xlink="http://www.w3.org/1999/xlink" xml:space="preserve" xmlns:serif="http://www.serif.com/" style="fill-rule:evenodd;clip-rule:evenodd;stroke-linejoin:round;stroke-miterlimit:2;"><g id="ic_dermatologist_f"><rect x="0.575" y="0" width="64" height="64" style="fill:none;"/><path d="M8.58,40.632l12.507,0c0.763,3.085 2.272,5.097 3.749,6.445c2.182,1.994 4.828,2.984 7.739,2.984c2.911,0 5.558,-0.99 7.74,-2.984c1.477,-1.348 2.986,-3.36 3.749,-6.445l12.507,0l0,11.854c0,1.94 -1.528,3.514 -3.409,3.514l-41.173,0c-1.881,0 -3.409,-1.574 -3.409,-3.514l0,-11.854Zm7.995,5.868c0.828,0 1.5,0.672 1.5,1.5c0,0.828 -0.672,1.5 -1.5,1.5c-0.827,0 -1.5,-0.672 -1.5,-1.5c0,-0.828 0.673,-1.5 1.5,-1.5Zm32,0c0.828,0 1.5,0.672 1.5,1.5c0,0.828 -0.672,1.5 -1.5,1.5c-0.827,0 -1.5,-0.672 -1.5,-1.5c0,-0.828 0.673,-1.5 1.5,-1.5Zm-39.995,-8.959l0,-7.307c0,-1.939 1.528,-3.513 3.409,-3.513l15.443,0c0.523,0 1.008,0.281 1.28,0.742c0.271,0.46 0.291,1.033 0.052,1.511c-0.434,0.917 -0.88,1.985 -1.245,3.026c-0.585,1.664 -0.942,3.266 -0.942,4.15c0,3.283 1.044,5.21 2.238,6.301c1.058,0.967 2.349,1.427 3.76,1.427c1.412,0 2.703,-0.46 3.761,-1.427c1.194,-1.091 2.238,-3.018 2.238,-6.301c0,-0.878 -0.357,-2.479 -0.942,-4.144c-0.366,-1.042 -0.812,-2.113 -1.241,-3.034c-0.239,-0.477 -0.219,-1.048 0.052,-1.506c0.271,-0.458 0.754,-0.738 1.274,-0.738c4.963,-0.007 15.445,-0.007 15.445,-0.007c1.881,0 3.409,1.574 3.409,3.513l0,7.307l-15.051,0c-0.014,0.181 -0.032,0.363 -0.052,0.544c-0.084,0.728 -0.22,1.451 -0.421,2.155c-0.22,0.77 -0.519,1.517 -0.906,2.215c-0.263,0.474 -0.565,0.925 -0.905,1.344c-0.671,0.826 -1.487,1.532 -2.399,2.06c-0.464,0.268 -0.952,0.49 -1.457,0.661c-0.975,0.331 -2.006,0.471 -3.032,0.447c-0.963,-0.023 -1.922,-0.196 -2.828,-0.537c-0.469,-0.176 -0.923,-0.397 -1.354,-0.658c-0.779,-0.473 -1.484,-1.077 -2.084,-1.773c-0.437,-0.508 -0.818,-1.067 -1.136,-1.661c-0.394,-0.735 -0.692,-1.522 -0.906,-2.331c-0.195,-0.736 -0.32,-1.491 -0.391,-2.25c-0.006,-0.072 -0.013,-0.144 -0.018,-0.216l-15.051,0Zm23.248,-8.036c0.082,-5.987 1.339,-11.235 4.685,-15.233c2.263,-2.704 5.485,-4.846 9.977,-6.239c0.396,-0.123 0.815,0.109 0.934,0.517c0.119,0.409 -0.106,0.84 -0.502,0.963c-4.169,1.293 -7.173,3.259 -9.273,5.768c-3.124,3.732 -4.244,8.647 -4.321,14.235c0.913,1.795 2.247,5.3 2.247,6.634c0,3.412 -1.344,4.637 -3,4.637c-1.655,0 -2.999,-1.225 -2.999,-4.637c0,-1.346 1.338,-4.855 2.252,-6.645Z" style="fill:#616161;"/></g></svg>