<?xml version="1.0" encoding="UTF-8" standalone="no"?><!DOCTYPE svg PUBLIC "-//W3C//DTD SVG 1.1//EN" "http://www.w3.org/Graphics/SVG/1.1/DTD/svg11.dtd"><svg width="100%" height="100%" viewBox="0 0 65 65" version="1.1" xmlns="http://www.w3.org/2000/svg" xmlns:xlink="http://www.w3.org/1999/xlink" xml:space="preserve" xmlns:serif="http://www.serif.com/" style="fill-rule:evenodd;clip-rule:evenodd;stroke-linejoin:round;stroke-miterlimit:2;"><g id="ic_four"><rect x="0.694" y="0.91" width="64" height="64" style="fill:none;fill-rule:nonzero;"/><g><path d="M26.449,5.374c4.26,-0.58 8.58,-0.59 12.81,0.22c-0.31,2.29 -0.85,4.77 0.23,6.95c4.34,3.37 10.67,2.64 14.73,6.5c2.79,2.86 2.54,7.25 2.17,10.94c2.65,5.45 3.53,12.59 -0.16,17.78c-1.56,2.48 -3.58,4.61 -5.66,6.65c-0.09,-5.06 0.27,-10.28 -1.78,-15.05c-1.13,3.06 -3.1,6.14 -2.38,9.54c0.45,2.57 1.03,5.13 1.12,7.76c-8.77,5.34 -20.37,5.72 -29.23,0.36c0.08,-3.07 0.42,-6.13 0.68,-9.19c0.23,-3.07 -1.39,-5.85 -2.38,-8.66c-1.88,4.93 -2.12,10.09 -1.96,15.3c-3.97,-3.82 -8.67,-8.59 -7.85,-14.59c-0.01,-3.44 0.99,-6.73 2.03,-9.97c-0.15,-3.59 -0.63,-7.68 2.03,-10.57c4.02,-4.24 10.79,-3.07 15.12,-6.79c1.48,-2.03 0.43,-4.83 0.48,-7.18m2.3,15.04c-5.98,1.82 -10.04,8.21 -8.99,14.4c0.82,7.48 9.11,12.96 16.31,10.71c6.28,-1.6 10.55,-8.26 9.4,-14.64c-0.85,-7.63 -9.47,-13.03 -16.72,-10.47Z" style="fill:#616161;fill-rule:nonzero;"/><path d="M28.749,20.414c7.25,-2.56 15.87,2.84 16.72,10.47c1.15,6.38 -3.12,13.04 -9.4,14.64c-7.2,2.25 -15.49,-3.23 -16.31,-10.71c-1.05,-6.19 3.01,-12.58 8.99,-14.4m-0.01,2.94c-6.48,2.49 -8.47,11.78 -3.49,16.65c4.92,5.68 15.42,3.16 17.15,-4.19c2.71,-7.74 -6.12,-15.99 -13.66,-12.46Z" style="fill:#6a3a5d;fill-rule:nonzero;"/><path d="M28.739,23.354c7.54,-3.53 16.37,4.72 13.66,12.46c-1.73,7.35 -12.23,9.87 -17.15,4.19c-4.98,-4.87 -2.99,-14.16 3.49,-16.65m1.96,3.88c-3.28,0.95 -5.01,4.71 -3.56,7.81c1.21,4.61 8.19,5.19 10.51,1.15c3.07,-4.42 -1.78,-11.11 -6.95,-8.96Z" style="fill:#a73a58;fill-rule:nonzero;"/><path d="M30.699,27.234c5.17,-2.15 10.02,4.54 6.95,8.96c-2.32,4.04 -9.3,3.46 -10.51,-1.15c-1.45,-3.1 0.28,-6.86 3.56,-7.81Z" style="fill:#c83a56;fill-rule:nonzero;"/></g></g></svg>