<?xml version="1.0" encoding="UTF-8" standalone="no"?><!DOCTYPE svg PUBLIC "-//W3C//DTD SVG 1.1//EN" "http://www.w3.org/Graphics/SVG/1.1/DTD/svg11.dtd"><svg width="100%" height="100%" viewBox="0 0 65 65" version="1.1" xmlns="http://www.w3.org/2000/svg" xmlns:xlink="http://www.w3.org/1999/xlink" xml:space="preserve" xmlns:serif="http://www.serif.com/" style="fill-rule:evenodd;clip-rule:evenodd;stroke-linejoin:round;stroke-miterlimit:2;"><g id="ic_five"><rect x="0.694" y="0.91" width="64" height="64" style="fill:none;fill-rule:nonzero;"/><g><path d="M39.45,18.044c2.12,-2.82 5.88,-3.74 7.67,-6.83c3.18,4.35 6.5,8.82 7.65,14.2c1.6,6.53 0.65,13.52 -2.31,19.53c-1.22,-3.99 -2.48,-8.03 -4.95,-11.45c-1.33,3.97 -2.37,8.19 -5.04,11.54c-5.07,6.23 -11.09,12.74 -19.52,13.84c-2.76,-5.98 -5.56,-12.05 -6.66,-18.59c3.68,0.47 7.03,-1.06 9.78,-3.38c0.39,0.39 1.16,1.17 1.55,1.56c1.71,-2.71 3.32,-5.49 5.16,-8.12c2.83,-3.78 3.14,-8.98 6.67,-12.3Zm-22.01,-9.1c2.82,-2.47 8.22,-2.95 10.52,0.28c1.49,-0.57 2.57,-0.2 3.24,1.1c-0.81,2.46 -3.87,3.12 -4.72,5.59c-0.88,2.49 -3.47,3.44 -5.35,5l-0.18,0.27c-0.47,0.71 -0.93,1.41 -1.39,2.13c-1.9,0.07 -3.8,0.14 -5.7,0.21c0.11,-5.08 2.06,-9.81 3.58,-14.58Z" style="fill:#616161;fill-rule:nonzero;"/><path d="M20.77,35.034c0.85,-1.02 1.68,-2.04 2.51,-3.07c0.9,1.66 1.93,3.24 2.96,4.82l-0.17,0.12c-2.75,2.32 -6.1,3.85 -9.78,3.38c-0.15,-0.96 -0.44,-2.9 -0.59,-3.87c1.62,-0.7 3.35,-1.06 5.07,-1.38Z" style="fill:#a73a58;fill-rule:nonzero;"/><path d="M19.56,23.314c0.46,-0.72 0.92,-1.42 1.39,-2.13c0.12,0.4 0.36,1.18 0.49,1.58l0.03,0.44c0.23,2.98 0.84,5.93 1.81,8.76c-0.83,1.03 -1.66,2.05 -2.51,3.07c-1.72,0.32 -3.45,0.68 -5.07,1.38c-0.52,-4.18 -0.66,-8.42 -1.75,-12.5l-0.09,-0.39c1.9,-0.07 3.8,-0.14 5.7,-0.21Z" style="fill:#c83a56;fill-rule:nonzero;"/><path d="M9.89,31.904c-0.38,-3.26 1.88,-5.88 4.06,-7.99c1.09,4.08 1.23,8.32 1.75,12.5c0.15,0.97 0.44,2.91 0.59,3.87c-3.09,-1.81 -6.32,-4.48 -6.4,-8.38Zm11.55,-9.14c0.55,0 1.65,0.01 2.19,0.02c0.49,1.88 1.98,3.2 3.02,4.77c0.88,3 0.45,6.26 -0.41,9.23c-1.03,-1.58 -2.06,-3.16 -2.96,-4.82c-0.97,-2.83 -1.58,-5.78 -1.81,-8.76l-0.03,-0.44Z" style="fill:#f37c8e;fill-rule:nonzero;"/></g></g></svg>