<?xml version="1.0" encoding="UTF-8" standalone="no"?><!DOCTYPE svg PUBLIC "-//W3C//DTD SVG 1.1//EN" "http://www.w3.org/Graphics/SVG/1.1/DTD/svg11.dtd"><svg width="100%" height="100%" viewBox="0 0 65 64" version="1.1" xmlns="http://www.w3.org/2000/svg" xmlns:xlink="http://www.w3.org/1999/xlink" xml:space="preserve" xmlns:serif="http://www.serif.com/" style="fill-rule:evenodd;clip-rule:evenodd;stroke-linejoin:round;stroke-miterlimit:2;"><g id="ic_gynaecologist_f"><rect x="0.575" y="0" width="64" height="64" style="fill:none;"/><path d="M19.953,21.993c1.18,-2.443 4.987,-5.993 12.622,-5.993c7.636,0 11.443,3.55 12.623,5.993c0.048,-0.001 0.096,-0.001 0.146,0.001c4.222,0.197 7.134,1.264 8.86,2.626c1.491,1.176 2.225,2.609 2.352,4.073c0.124,1.44 -0.344,2.969 -1.503,4.392c-0.935,1.148 -2.368,2.256 -4.297,3.161c-0.439,2.343 -3.046,4.145 -6.191,4.145c-3.453,0 -6.256,-2.171 -6.256,-4.846c0,-2.674 2.803,-4.845 6.256,-4.845c2.03,0 3.835,0.75 4.978,1.912c0.848,-0.428 1.552,-0.907 2.105,-1.423c0.754,-0.703 1.222,-1.425 1.159,-2.163c-0.062,-0.712 -0.637,-1.295 -1.531,-1.808c-1.367,-0.785 -3.398,-1.286 -6.105,-1.412c-0.009,-0.001 -0.018,-0.001 -0.027,-0.002c-1.194,2.822 -4.379,2.291 -7.09,5.139c-3.346,3.515 -2.964,17.057 -2.964,17.057l-2.515,-0.011l-2.514,0.011c0,0 0.381,-13.542 -2.964,-17.057c-2.711,-2.848 -5.897,-2.317 -7.09,-5.139c-0.009,0.001 -0.018,0.001 -0.027,0.002c-2.707,0.126 -4.738,0.627 -6.105,1.412c-0.895,0.513 -1.469,1.096 -1.531,1.808c-0.063,0.738 0.405,1.46 1.159,2.163c0.553,0.516 1.257,0.995 2.105,1.423c1.143,-1.162 2.948,-1.912 4.978,-1.912c3.453,0 6.256,2.171 6.256,4.845c0,2.675 -2.803,4.846 -6.256,4.846c-3.145,0 -5.752,-1.802 -6.191,-4.145c-1.929,-0.905 -3.362,-2.013 -4.297,-3.161c-1.159,-1.423 -1.628,-2.952 -1.503,-4.392c0.126,-1.464 0.861,-2.897 2.351,-4.073c1.727,-1.362 4.639,-2.429 8.861,-2.626c0.049,-0.002 0.098,-0.002 0.146,-0.001Z" style="fill:#616161;"/></g></svg>