<?xml version="1.0" encoding="UTF-8" standalone="no"?><!DOCTYPE svg PUBLIC "-//W3C//DTD SVG 1.1//EN" "http://www.w3.org/Graphics/SVG/1.1/DTD/svg11.dtd"><svg width="100%" height="100%" viewBox="0 0 65 64" version="1.1" xmlns="http://www.w3.org/2000/svg" xmlns:xlink="http://www.w3.org/1999/xlink" xml:space="preserve" xmlns:serif="http://www.serif.com/" style="fill-rule:evenodd;clip-rule:evenodd;stroke-linejoin:round;stroke-miterlimit:2;"><g id="ic_home_f"><rect x="0.694" y="0" width="64" height="64" style="fill:none;"/><path d="M27.361,50.667l0,-13.334l10.667,0l0,13.334c0,1.466 1.2,2.666 2.666,2.666l8,0c1.467,0 2.667,-1.2 2.667,-2.666l0,-18.667l4.533,0c1.227,0 1.814,-1.52 0.88,-2.32l-22.293,-20.08c-1.013,-0.907 -2.56,-0.907 -3.573,0l-22.294,20.08c-0.906,0.8 -0.346,2.32 0.88,2.32l4.534,0l0,18.667c0,1.466 1.2,2.666 2.666,2.666l8,0c1.467,0 2.667,-1.2 2.667,-2.666Z" style="fill:#2FC9B9;fill-rule:nonzero;"/></g></svg>