<?xml version="1.0" encoding="UTF-8" standalone="no"?><!DOCTYPE svg PUBLIC "-//W3C//DTD SVG 1.1//EN" "http://www.w3.org/Graphics/SVG/1.1/DTD/svg11.dtd"><svg width="100%" height="100%" viewBox="0 0 65 64" version="1.1" xmlns="http://www.w3.org/2000/svg" xmlns:xlink="http://www.w3.org/1999/xlink" xml:space="preserve" xmlns:serif="http://www.serif.com/" style="fill-rule:evenodd;clip-rule:evenodd;stroke-linejoin:round;stroke-miterlimit:2;"><g id="ic_home_clinic_f"><rect x="0.694" y="0" width="64" height="64" style="fill:none;"/><path d="M50.669,28.005l4.354,3.922c0.89,0.762 0.331,2.211 -0.839,2.211l-4.32,0l0,17.792c0,1.398 -1.144,2.541 -2.542,2.541l-7.625,0c-1.398,0 -2.542,-1.143 -2.542,-2.541l0,-12.708l-10.166,0l0,12.708c0,1.398 -1.144,2.541 -2.542,2.541l-7.625,0c-1.398,0 -2.541,-1.143 -2.541,-2.541l0,-17.792l-4.321,0c-1.169,0 -1.703,-1.449 -0.839,-2.211l21.248,-19.139c0.966,-0.864 2.44,-0.864 3.406,0l3.627,3.267c-0.812,0.658 -1.338,1.655 -1.358,2.759c-0.001,0.036 -0.001,0.112 -0.001,0.112c0,2.016 1.613,3.629 3.629,3.629l3.996,0l0,3.996c0,1.986 1.618,3.64 3.656,3.603c-0.035,0 0.049,0 0.049,0c1.468,0 2.736,-0.885 3.296,-2.149Zm4.329,-10.851c0.935,0 1.696,0.761 1.696,1.696l0,0.102c0,0.935 -0.761,1.696 -1.696,1.696l-5.929,0l0,5.903c0,0.935 -0.761,1.697 -1.696,1.697l-0.084,0c-0.957,0.017 -1.714,-0.764 -1.714,-1.697c0,0 0,-5.903 0,-5.903l-5.903,0c-0.957,0 -1.722,-0.765 -1.722,-1.722l0,-0.076c0.017,-0.926 0.78,-1.696 1.722,-1.696c0,0 5.903,0 5.903,0l0,-5.929c0,-0.937 0.767,-1.696 1.722,-1.696l0.076,0c0.935,0 1.696,0.761 1.696,1.696c0,0 0,5.929 0,5.929l5.929,0Z" style="fill:#616161;"/></g></svg>