<?xml version="1.0" encoding="UTF-8" standalone="no"?><!DOCTYPE svg PUBLIC "-//W3C//DTD SVG 1.1//EN" "http://www.w3.org/Graphics/SVG/1.1/DTD/svg11.dtd"><svg width="100%" height="100%" viewBox="0 0 65 65" version="1.1" xmlns="http://www.w3.org/2000/svg" xmlns:xlink="http://www.w3.org/1999/xlink" xml:space="preserve" xmlns:serif="http://www.serif.com/" style="fill-rule:evenodd;clip-rule:evenodd;stroke-linejoin:round;stroke-miterlimit:2;"><g id="ic_nine"><rect x="0.694" y="0.91" width="64" height="64" style="fill:none;fill-rule:nonzero;"/><g><path d="M40.735,9.84c5.59,2.08 11.35,5.36 14.26,10.72c-0.85,6.68 -3.38,13.88 -0.31,20.33c1.12,3.66 0.33,8.73 -3.47,10.53c-3.58,0.98 -7.34,0.22 -10.99,0.09c0.06,-3.29 -0.56,-6.57 -3.2,-8.78c-3.05,0.3 -7.22,-0.89 -9.08,2.32c-1.89,2.47 -0.91,5.6 -0.25,8.31c-5.31,-0.38 -11.1,1.76 -15.96,-1.25c-2.51,-1.57 -1.06,-4.79 -1.28,-7.17c8.12,-0.15 15.02,-4.74 21.97,-8.38c3.75,-2.24 6.7,-6.12 7.17,-10.55c0.57,-5.37 0.71,-10.78 1.14,-16.17Z" style="fill:#616161;fill-rule:nonzero;"/><path d="M27.945,45.05c1.86,-3.21 6.03,-2.02 9.08,-2.32c2.64,2.21 3.26,5.49 3.2,8.78c-1.08,0.17 -2.15,0.36 -3.23,0.55c-0.18,-1.54 -0.22,-3.1 -0.66,-4.6c-0.65,-2 -3.52,-2.44 -4.86,-0.85c-2.14,1.68 -0.04,4.32 0.48,6.29c-1.3,0.17 -2.6,0.3 -3.91,0.43l-0.35,0.03c-0.66,-2.71 -1.64,-5.84 0.25,-8.31Z" style="fill:#a73a58;fill-rule:nonzero;"/><path d="M31.475,46.61c1.34,-1.59 4.21,-1.15 4.86,0.85c0.44,1.5 0.48,3.06 0.66,4.6c-1.68,0.3 -3.36,0.59 -5.04,0.84c-0.52,-1.97 -2.62,-4.61 -0.48,-6.29Z" style="fill:#c83a56;fill-rule:nonzero;"/><path d="M36.995,52.06c1.08,-0.19 2.15,-0.38 3.23,-0.55c-1.65,1.76 -3.16,4.37 -5.87,4.41c-2.45,0.37 -4.6,-1 -6.31,-2.59c1.31,-0.13 2.61,-0.26 3.91,-0.43c1.68,-0.25 3.36,-0.54 5.04,-0.84Z" style="fill:#f37c8e;fill-rule:nonzero;"/></g></g></svg>