<?xml version="1.0" encoding="UTF-8" standalone="no"?><!DOCTYPE svg PUBLIC "-//W3C//DTD SVG 1.1//EN" "http://www.w3.org/Graphics/SVG/1.1/DTD/svg11.dtd"><svg width="100%" height="100%" viewBox="0 0 65 65" version="1.1" xmlns="http://www.w3.org/2000/svg" xmlns:xlink="http://www.w3.org/1999/xlink" xml:space="preserve" xmlns:serif="http://www.serif.com/" style="fill-rule:evenodd;clip-rule:evenodd;stroke-linejoin:round;stroke-miterlimit:2;"><g id="ic_one"><rect x="0.694" y="0.91" width="64" height="64" style="fill:none;fill-rule:nonzero;"/><g><path d="M23.424,10.592c5.35,-2.5 11.55,-3.38 16.96,-0.51c1.24,2 2.37,4.07 3.34,6.21c-1.2,3.79 0.88,7.52 0.85,11.31c-0.28,3.72 -4.29,6.09 -3.86,9.95c0.08,1.58 0.05,3.27 0.86,4.69c3.55,3.03 8.35,3.69 12.67,5.06c-4.54,5.19 -10.77,9.03 -17.67,9.93c-9.38,1.41 -19.7,-2.22 -25.43,-9.93c3.97,-1.17 8.32,-1.77 11.7,-4.35c2.31,-1.73 1.77,-4.89 1.57,-7.39c-0.83,-3.43 -4.95,-6.01 -3.71,-9.9c1.15,-3.59 0.86,-7.36 1.1,-11.06c-0.13,-1.48 1.6,-1.82 2.49,-2.54c-0.22,-0.37 -0.66,-1.1 -0.87,-1.47m6.45,1.52c-2.29,0.7 -4.06,2.56 -5.3,4.55c-3.04,5.35 1.63,13.1 7.85,12.56c4.6,0.36 8.92,-4.03 8.65,-8.58c0.46,-5.7 -5.87,-10.18 -11.2,-8.53Z" style="fill:#616161;fill-rule:nonzero;"/><path d="M30.694,16.832c3.58,-1.92 7.66,2.95 5.05,6.1c-1.62,2.71 -5.74,2.07 -6.99,-0.63c-0.7,-1.95 -0.51,-4.95 1.94,-5.47Z" style="fill:#c83a56;fill-rule:nonzero;"/><path d="M29.874,12.112c5.33,-1.65 11.66,2.83 11.2,8.53c0.27,4.55 -4.05,8.94 -8.65,8.58c-6.22,0.54 -10.89,-7.21 -7.85,-12.56c1.24,-1.99 3.01,-3.85 5.3,-4.55m0.82,4.72c-2.45,0.52 -2.64,3.52 -1.94,5.47c1.25,2.7 5.37,3.34 6.99,0.63c2.61,-3.15 -1.47,-8.02 -5.05,-6.1Z" style="fill:#a73a58;fill-rule:nonzero;"/></g></g></svg>