<?xml version="1.0" encoding="UTF-8" standalone="no"?><!DOCTYPE svg PUBLIC "-//W3C//DTD SVG 1.1//EN" "http://www.w3.org/Graphics/SVG/1.1/DTD/svg11.dtd"><svg width="100%" height="100%" viewBox="0 0 65 64" version="1.1" xmlns="http://www.w3.org/2000/svg" xmlns:xlink="http://www.w3.org/1999/xlink" xml:space="preserve" xmlns:serif="http://www.serif.com/" style="fill-rule:evenodd;clip-rule:evenodd;stroke-linejoin:round;stroke-miterlimit:2;"><g id="ic_profile_o"><rect x="0.694" y="0" width="64" height="64" style="fill:none;"/><path d="M32.694,37.333c-7.12,0 -21.333,3.574 -21.333,10.667l0,2.667c0,1.466 1.2,2.666 2.667,2.666l37.333,0c1.467,0 2.667,-1.2 2.667,-2.666l0,-2.667c0,-7.093 -14.214,-10.667 -21.334,-10.667Zm17.334,12l0,-1.333c0,-0.639 -0.436,-1.134 -0.94,-1.62c-0.651,-0.629 -1.482,-1.177 -2.409,-1.674c-4.207,-2.255 -10.222,-3.373 -13.985,-3.373c-3.762,0 -9.777,1.118 -13.984,3.373c-0.927,0.497 -1.758,1.045 -2.41,1.674c-0.503,0.486 -0.939,0.981 -0.939,1.62l0,1.333l34.667,0Zm-17.334,-17.333c5.894,0 10.667,-4.773 10.667,-10.667c0,-5.893 -4.773,-10.666 -10.667,-10.666c-5.893,0 -10.666,4.773 -10.666,10.666c0,5.894 4.773,10.667 10.666,10.667Zm0,-4c-3.683,0 -6.666,-2.983 -6.666,-6.667c0,-3.683 2.983,-6.666 6.666,-6.666c3.684,0 6.667,2.983 6.667,6.666c0,3.684 -2.983,6.667 -6.667,6.667Z" style="fill:#616161;"/></g></svg>