<?xml version="1.0" encoding="UTF-8" standalone="no"?><!DOCTYPE svg PUBLIC "-//W3C//DTD SVG 1.1//EN" "http://www.w3.org/Graphics/SVG/1.1/DTD/svg11.dtd"><svg width="100%" height="100%" viewBox="0 0 65 64" version="1.1" xmlns="http://www.w3.org/2000/svg" xmlns:xlink="http://www.w3.org/1999/xlink" xml:space="preserve" xmlns:serif="http://www.serif.com/" style="fill-rule:evenodd;clip-rule:evenodd;stroke-linejoin:round;stroke-miterlimit:2;"><g id="ic_profile_f"><rect x="0.694" y="0" width="64" height="64" style="fill:none;"/><path d="M32.694,32c5.894,0 10.667,-4.773 10.667,-10.667c0,-5.893 -4.773,-10.666 -10.667,-10.666c-5.893,0 -10.666,4.773 -10.666,10.666c0,5.894 4.773,10.667 10.666,10.667Zm0,5.333c-7.12,0 -21.333,3.574 -21.333,10.667l0,2.667c0,1.466 1.2,2.666 2.667,2.666l37.333,0c1.467,0 2.667,-1.2 2.667,-2.666l0,-2.667c0,-7.093 -14.214,-10.667 -21.334,-10.667Z" style="fill:#2FC9B9;"/></g></svg>