<?xml version="1.0" encoding="UTF-8" standalone="no"?><!DOCTYPE svg PUBLIC "-//W3C//DTD SVG 1.1//EN" "http://www.w3.org/Graphics/SVG/1.1/DTD/svg11.dtd"><svg width="100%" height="100%" viewBox="0 0 65 64" version="1.1" xmlns="http://www.w3.org/2000/svg" xmlns:xlink="http://www.w3.org/1999/xlink" xml:space="preserve" xmlns:serif="http://www.serif.com/" style="fill-rule:evenodd;clip-rule:evenodd;stroke-linejoin:round;stroke-miterlimit:2;"><g id="ic_pediatrician_f"><rect x="0.575" y="0" width="64" height="64" style="fill:none;"/><path d="M32.575,30.09c-11.529,0 -17.03,5.787 -17.03,17.273l0,4.319c0,2.375 1.943,4.318 4.318,4.318l25.425,0c2.375,0 4.318,-1.943 4.318,-4.318l0,-4.319c0,-11.486 -5.501,-17.273 -17.031,-17.273Zm0,-22.09l0.004,0l0,0c4.974,0.002 9.095,4.635 9.857,9.394c0.083,0.518 1.995,0.773 2.139,2.202c0.109,1.078 -2.034,1.144 -2.075,1.512c-0.338,3.021 -4.784,6.862 -9.921,6.865l0,0l-0.004,0l0,0c-5.136,-0.003 -9.546,-3.955 -9.92,-6.865c-0.047,-0.367 -2.184,-0.434 -2.076,-1.512c0.145,-1.429 2.057,-1.684 2.14,-2.202c0.762,-4.759 4.883,-9.392 9.856,-9.394l0,0Z" style="fill:#616161;"/></g></svg>