<?xml version="1.0" encoding="UTF-8" standalone="no"?><!DOCTYPE svg PUBLIC "-//W3C//DTD SVG 1.1//EN" "http://www.w3.org/Graphics/SVG/1.1/DTD/svg11.dtd"><svg width="100%" height="100%" viewBox="0 0 65 64" version="1.1" xmlns="http://www.w3.org/2000/svg" xmlns:xlink="http://www.w3.org/1999/xlink" xml:space="preserve" xmlns:serif="http://www.serif.com/" style="fill-rule:evenodd;clip-rule:evenodd;stroke-linejoin:round;stroke-miterlimit:2;"><g id="ic_physician_f"><rect x="0.575" y="0" width="64" height="64" style="fill:none;"/><path d="M22.295,39.466c3.72,-0.977 7.486,-1.466 10.28,-1.466c2.492,0 5.757,0.389 9.071,1.165l0,4.258c-1.809,-0.299 -3.157,0.661 -4.118,1.987c-0.78,1.076 -1.295,2.392 -1.602,3.37c-0.786,0.046 -1.409,0.698 -1.409,1.494c0,0.826 0.67,1.497 1.496,1.497c0.826,0 1.497,-0.671 1.497,-1.497c0,-0.526 -0.273,-0.99 -0.684,-1.256c0.283,-0.898 0.752,-2.087 1.457,-3.06c0.809,-1.116 1.944,-1.954 3.522,-1.549c1.581,0.406 2.188,1.694 2.378,3.07c0.166,1.197 0.022,2.47 -0.149,3.397c-0.766,0.065 -1.368,0.708 -1.368,1.491c0,0.826 0.671,1.497 1.497,1.497c0.826,0 1.496,-0.671 1.496,-1.497c0,-0.541 -0.288,-1.016 -0.719,-1.279c0.187,-1.009 0.35,-2.415 0.168,-3.737c-0.218,-1.577 -0.915,-3.026 -2.529,-3.67l0,-4.287c7.035,1.8 13.996,5.341 13.996,10.606l0,3c0,1.65 -1.35,3 -3,3l-42,0c-1.65,0 -3,-1.35 -3,-3l0,-3c0,-4.963 6.185,-8.394 12.786,-10.279l0,6.091c-1.066,0.217 -1.87,1.16 -1.87,2.29c0,1.29 1.047,2.337 2.337,2.337c1.29,0 2.337,-1.047 2.337,-2.337c0,-1.13 -0.804,-2.073 -1.87,-2.29l0,-6.346Zm10.28,-7.466c6.63,0 12,-5.37 12,-12c0,-6.63 -5.37,-12 -12,-12c-6.63,0 -12,5.37 -12,12c0,6.63 5.37,12 12,12Z" style="fill:#616161;"/></g></svg>