<?xml version="1.0" encoding="UTF-8" standalone="no"?><!DOCTYPE svg PUBLIC "-//W3C//DTD SVG 1.1//EN" "http://www.w3.org/Graphics/SVG/1.1/DTD/svg11.dtd"><svg width="100%" height="100%" viewBox="0 0 65 64" version="1.1" xmlns="http://www.w3.org/2000/svg" xmlns:xlink="http://www.w3.org/1999/xlink" xml:space="preserve" xmlns:serif="http://www.serif.com/" style="fill-rule:evenodd;clip-rule:evenodd;stroke-linejoin:round;stroke-miterlimit:2;"><g id="ic_psychiatrist_f"><rect x="0.575" y="0" width="64" height="64" style="fill:none;"/><path d="M42.528,47.387c-2.136,2.862 -5.883,2.652 -8.926,2.578l0,-35.93c3.34,-0.082 7.528,-0.327 9.503,3.506l0.003,-0.001c0.01,0.018 0.02,0.036 0.031,0.054c0.831,1.372 0.756,3.47 -0.235,4.989c-0.315,0.483 -0.189,1.137 0.282,1.461c0.471,0.323 1.109,0.193 1.424,-0.29c1.257,-1.926 1.449,-4.496 0.679,-6.448c3.21,0.317 6.453,3.334 6.581,7.39c3.148,0.208 4.704,4.183 4.705,7.301l0,0l0,0.006l0,0c-0.001,2.554 -1.046,5.684 -3.154,6.847c-0.949,-2.288 -3.14,-3.971 -5.279,-4.19c-0.564,-0.058 -1.067,0.365 -1.123,0.943c-0.057,0.578 0.355,1.095 0.919,1.153c1.566,0.16 3.142,1.501 3.71,3.232c0.033,0.099 0.078,0.189 0.133,0.269c-0.604,3.869 -4.058,6.572 -7.235,6.461c-0.122,-2.503 -1.64,-4.871 -3.596,-5.825c-0.511,-0.249 -1.124,-0.026 -1.367,0.499c-0.243,0.525 -0.025,1.154 0.486,1.404c1.422,0.693 2.465,2.5 2.431,4.327c-0.001,0.091 0.008,0.18 0.028,0.264Zm-19.905,0c2.136,2.862 5.883,2.652 8.926,2.578l0,-35.93c-3.34,-0.082 -7.528,-0.327 -9.503,3.506l-0.003,-0.001c-0.01,0.018 -0.02,0.036 -0.031,0.054c-0.831,1.372 -0.756,3.47 0.235,4.989c0.315,0.483 0.188,1.137 -0.282,1.461c-0.471,0.323 -1.109,0.193 -1.424,-0.29c-1.257,-1.926 -1.449,-4.496 -0.679,-6.448c-3.211,0.317 -6.454,3.334 -6.581,7.39c-3.148,0.208 -4.704,4.183 -4.706,7.301l0,0l0,0.006l0,0c0.002,2.554 1.046,5.684 3.155,6.847c0.949,-2.288 3.139,-3.971 5.279,-4.19c0.563,-0.058 1.067,0.365 1.123,0.943c0.057,0.578 -0.355,1.095 -0.919,1.153c-1.566,0.16 -3.142,1.501 -3.711,3.232c-0.032,0.099 -0.077,0.189 -0.132,0.269c0.604,3.869 4.057,6.572 7.235,6.461c0.122,-2.503 1.639,-4.871 3.596,-5.825c0.511,-0.249 1.124,-0.026 1.367,0.499c0.243,0.525 0.025,1.154 -0.487,1.404c-1.421,0.693 -2.464,2.5 -2.431,4.327c0.002,0.091 -0.008,0.18 -0.027,0.264Z" style="fill:#616161;"/></g></svg>