<?xml version="1.0" encoding="UTF-8" standalone="no"?><!DOCTYPE svg PUBLIC "-//W3C//DTD SVG 1.1//EN" "http://www.w3.org/Graphics/SVG/1.1/DTD/svg11.dtd"><svg width="100%" height="100%" viewBox="0 0 65 65" version="1.1" xmlns="http://www.w3.org/2000/svg" xmlns:xlink="http://www.w3.org/1999/xlink" xml:space="preserve" xmlns:serif="http://www.serif.com/" style="fill-rule:evenodd;clip-rule:evenodd;stroke-linejoin:round;stroke-miterlimit:2;"><g id="ic_eleven"><rect x="0.783" y="0.91" width="64" height="64" style="fill:none;fill-rule:nonzero;"/><g><path d="M20.276,8.04c8.5,-4.29 19.08,-4.12 27.27,0.83c0.99,4.65 0.37,9.41 0.87,14.11c-2.13,0.62 -4.74,1.09 -5.92,3.21c-0.54,1.94 -0.53,4.06 0.02,6c1.34,2.55 4.58,2.57 7.04,3.2c0.46,6.39 1.98,12.8 1.17,19.22c-3.6,3.56 -8.66,5.04 -13.46,6.23c-1.65,-4.87 -2.53,-9.98 -2.47,-15.12c-0.22,-2.18 0.62,-4.96 -1.53,-6.39c-0.85,7.18 -0.43,14.53 -2.87,21.47c-4.37,-0.46 -8.6,-1.92 -12.3,-4.28c-2.55,-1.14 -1.66,-4.49 -1.7,-6.72c0.7,-4.86 1.03,-9.76 1.68,-14.62c0.03,-0.25 0.08,-0.76 0.11,-1.01c1.62,0.06 3.25,0.13 4.88,0.2c0.82,-1.48 2.3,-2.75 2.39,-4.53c0.42,-2.24 -1.19,-3.97 -2.25,-5.72c-1.39,-0.02 -2.79,-0.04 -4.18,-0.07c0.52,-5.34 -0.05,-10.74 1.25,-16.01Zm-3.88,2.14c1.95,-0.97 0.41,1.14 -0.17,1.74c-0.69,4.65 -1.79,9.24 -3.27,13.71c-0.53,1.92 -1.53,4.03 -0.58,5.99c1.55,3.49 1.96,7.34 2.36,11.09c-2.85,0.21 -2.95,-2.8 -3.81,-4.75c-0.97,3.41 0.54,6.58 1.63,9.73c-0.56,2.29 -2.53,0.59 -3.03,-0.65c-1.87,-2.65 -2.56,-5.87 -4.09,-8.7c-0.73,-3.5 -0.05,-7.14 -0.07,-10.69c0.14,3.81 -0.6,7.98 1.44,11.42c0.76,-4.79 -0.1,-9.58 -0.07,-14.37c1.17,-5.88 5.53,-10.45 9.66,-14.52Zm35.11,1.48c3.64,3.38 6.68,7.52 8.2,12.29c1.36,3.79 0.28,7.83 0.7,11.74c0.45,4.72 -1.55,9.26 -4.1,13.11c-0.72,-0.43 -1.31,-1.02 -1.76,-1.77c1.64,-2.53 2.57,-5.43 2.14,-8.47c-1.19,1.11 -1.94,6.06 -4.03,3.49c0.16,-2.52 0.78,-4.98 1.29,-7.44c0.46,-2.04 2.16,-3.94 1.23,-6.12c-1.56,-5.53 -3.45,-11.02 -3.67,-16.83Z" style="fill:#616161;fill-rule:nonzero;"/><path d="M47.732,25.168c-0.013,0.014 -0.026,0.028 -0.039,0.043l0.039,-0.043c0.014,-0.015 0.027,-0.029 0.04,-0.043l-0.04,0.043Zm-28.706,-1.118c1.39,0.03 2.79,0.05 4.18,0.07c1.06,1.75 2.67,3.48 2.25,5.72c-0.09,1.78 -1.57,3.05 -2.39,4.53c-1.63,-0.07 -3.26,-0.14 -4.88,-0.2c0.3,-3.38 0.49,-6.76 0.84,-10.12Zm25.87,7.11c0.336,0.062 0.673,0.124 1.01,0.186l-0.459,-0.085l-0.551,-0.101Zm0.039,-0.722c-0.002,0.02 -0.004,0.039 -0.006,0.058l0.003,-0.028l0.003,-0.03Zm0.022,-0.176c-0.005,0.034 -0.009,0.067 -0.013,0.101c0.004,-0.034 0.009,-0.068 0.013,-0.101Zm0.236,-1.064c-0.028,0.092 -0.054,0.184 -0.079,0.278c0.025,-0.094 0.051,-0.186 0.079,-0.278Zm0.095,-0.285c-0.021,0.059 -0.042,0.119 -0.061,0.179c0.019,-0.06 0.04,-0.12 0.061,-0.179Zm0.187,-0.476c-0.055,0.127 -0.107,0.256 -0.155,0.386c0.048,-0.13 0.1,-0.259 0.155,-0.386Zm0.093,-0.208c-0.025,0.053 -0.049,0.107 -0.073,0.161c0.024,-0.054 0.048,-0.108 0.073,-0.161Zm0.178,-0.359c-0.013,0.024 -0.025,0.049 -0.038,0.073c0.017,-0.033 0.034,-0.066 0.051,-0.098l-0.013,0.025Zm0.109,-0.201c-0.009,0.017 -0.018,0.033 -0.028,0.05l0.014,-0.025l0.014,-0.025Zm0.27,-0.454c-0.014,0.023 -0.028,0.045 -0.042,0.067c0.014,-0.022 0.028,-0.044 0.042,-0.067Zm0.087,-0.136c-0.005,0.009 -0.01,0.017 -0.015,0.025c0.005,-0.008 0.01,-0.016 0.015,-0.025Zm0.048,-0.072c-0.005,0.008 -0.011,0.016 -0.016,0.024l0.016,-0.024c0.005,-0.008 0.011,-0.016 0.016,-0.024l-0.016,0.024Zm0.23,-0.333c-0.006,0.008 -0.011,0.016 -0.017,0.024l-0.017,0.024c0.017,-0.024 0.034,-0.048 0.051,-0.071l-0.017,0.023Zm0.119,-0.163c-0.007,0.01 -0.015,0.02 -0.023,0.031l0.023,-0.031Zm0.468,-0.596c-0.053,0.064 -0.106,0.129 -0.158,0.193c0.04,-0.049 0.08,-0.098 0.121,-0.147l0.037,-0.046Zm-2.181,5.153c0.001,-0.016 0.001,-0.033 0.001,-0.05c0,0.027 -0.001,0.054 -0.001,0.081l0,-0.031Zm0.069,-0.864c0.006,-0.039 0.012,-0.078 0.018,-0.116l0.005,-0.029c-0.01,0.058 -0.019,0.116 -0.027,0.174l0.004,-0.029Zm0.117,-0.6c-0.03,0.121 -0.056,0.244 -0.079,0.369l0.006,-0.029c0.023,-0.124 0.05,-0.247 0.08,-0.369l-0.007,0.029Zm0.523,-1.453l-0.012,0.026l0.012,-0.026Zm0.292,-0.557l-0.014,0.025l0.014,-0.025Zm0.029,-0.05c0.029,-0.049 0.058,-0.099 0.088,-0.148l0.014,-0.024c-0.039,0.065 -0.078,0.131 -0.116,0.197l0.014,-0.025Zm0.753,-1.126l-0.035,0.046l0.035,-0.046Zm0.106,-0.139c-0.024,0.031 -0.047,0.061 -0.071,0.092l0.035,-0.046l0.036,-0.046Zm0.366,-0.453c0.07,-0.082 0.14,-0.164 0.21,-0.245c-0.083,0.096 -0.166,0.192 -0.247,0.29l0.037,-0.045Zm0.701,-0.787c0.014,-0.014 0.027,-0.029 0.04,-0.043l0.041,-0.042c-0.041,0.042 -0.081,0.085 -0.121,0.128l0.04,-0.043Zm0.202,-0.212c0.027,-0.029 0.054,-0.057 0.081,-0.085c-0.041,0.042 -0.081,0.084 -0.122,0.127l0.041,-0.042Zm1.285,7.327c0.064,0.918 0.121,1.827 0.187,2.746l0.03,0.49c-2.46,-0.63 -5.7,-0.65 -7.04,-3.2c-0.55,-1.94 -0.56,-4.06 -0.02,-6c1.18,-2.12 3.79,-2.59 5.92,-3.21l-0.03,0.94l-0.21,0.78l0.46,-0.24c0.27,2.49 0.54,5 0.69,7.51l0.013,0.184Z" style="fill:#a73a58;fill-rule:nonzero;"/><path d="M14.286,29.73c-0.33,-2.74 1.72,-5.99 4.74,-5.68c-0.35,3.36 -0.54,6.74 -0.84,10.12c-0.03,0.25 -0.08,0.76 -0.11,1.01c-1.41,-1.66 -3.76,-3.02 -3.79,-5.45Zm34.61,-5.72c2.43,-0.59 4.41,2.54 4.52,4.74c0.52,2.82 -1.87,4.72 -3.89,6.15c-0.07,-0.98 -0.13,-1.95 -0.2,-2.93c-0.15,-2.51 -0.42,-5.02 -0.69,-7.51l0.26,-0.45Z" style="fill:#f37c8e;fill-rule:nonzero;"/></g></g></svg>