<?xml version="1.0" encoding="UTF-8" standalone="no"?><!DOCTYPE svg PUBLIC "-//W3C//DTD SVG 1.1//EN" "http://www.w3.org/Graphics/SVG/1.1/DTD/svg11.dtd"><svg width="100%" height="100%" viewBox="0 0 65 64" version="1.1" xmlns="http://www.w3.org/2000/svg" xmlns:xlink="http://www.w3.org/1999/xlink" xml:space="preserve" xmlns:serif="http://www.serif.com/" style="fill-rule:evenodd;clip-rule:evenodd;stroke-linejoin:round;stroke-miterlimit:2;"><g id="ic_records_f"><rect x="0.694" y="0" width="64" height="64" style="fill:none;"/><path d="M13.459,47.482c-2.632,0 -4.765,-2.133 -4.765,-4.764c0,-2.617 0,-5.854 0,-8.471c0,-2.631 2.133,-4.765 4.765,-4.765c9.192,0 29.278,0 38.471,0c2.631,0 4.764,2.134 4.764,4.765c0,2.617 0,5.854 0,8.471c0,2.631 -2.133,4.764 -4.764,4.764c-1.715,0 -3.236,0 -3.236,0l0,5.397c0,0.79 -0.313,1.547 -0.871,2.105c-0.558,0.558 -1.315,0.871 -2.105,0.871c-0.001,0 -0.002,0 -0.003,0c-0.789,0 -1.546,-0.313 -2.104,-0.871c-0.558,-0.558 -0.872,-1.315 -0.872,-2.105c0,-2.406 0,-5.397 0,-5.397l-20.09,0l0,8.373l-5.955,0l0,-8.373l-3.235,0Zm26.235,-9c0,-0.552 -0.447,-1 -1,-1c-2.577,0 -9.423,0 -12,0c-0.552,0 -1,0.448 -1,1c0,0.553 0.448,1 1,1c2.577,0 9.423,0 12,0c0.553,0 1,-0.447 1,-1Zm17,-25.862c0,-2.632 -2.133,-4.765 -4.764,-4.765c-9.193,0 -29.279,0 -38.471,0c-2.632,0 -4.765,2.133 -4.765,4.765c0,2.617 0,5.854 0,8.471c0,2.631 2.133,4.764 4.765,4.764c9.192,0 29.278,0 38.471,0c2.631,0 4.764,-2.133 4.764,-4.764c0,-2.617 0,-5.854 0,-8.471Zm-17,4.235c0,-0.552 -0.447,-1 -1,-1c-2.577,0 -9.423,0 -12,0c-0.552,0 -1,0.448 -1,1c0,0.553 0.448,1 1,1c2.577,0 9.423,0 12,0c0.553,0 1,-0.447 1,-1Z" style="fill:#2FC9B9;"/></g></svg>