<?xml version="1.0" encoding="UTF-8" standalone="no"?><!DOCTYPE svg PUBLIC "-//W3C//DTD SVG 1.1//EN" "http://www.w3.org/Graphics/SVG/1.1/DTD/svg11.dtd"><svg width="100%" height="100%" viewBox="0 0 65 64" version="1.1" xmlns="http://www.w3.org/2000/svg" xmlns:xlink="http://www.w3.org/1999/xlink" xml:space="preserve" xmlns:serif="http://www.serif.com/" style="fill-rule:evenodd;clip-rule:evenodd;stroke-linejoin:round;stroke-miterlimit:2;"><g id="ic_records_o"><rect x="0.694" y="0" width="64" height="64" style="fill:none;"/><path d="M13.494,47.482c-2.651,0 -4.8,-2.149 -4.8,-4.8c0,-2.599 0,-5.8 0,-8.4c0,-1.273 0.506,-2.494 1.406,-3.394c0.9,-0.9 2.121,-1.406 3.394,-1.406c9.197,0 29.204,0 38.4,0c1.273,0 2.494,0.506 3.394,1.406c0.901,0.9 1.406,2.121 1.406,3.394c0,2.6 0,5.801 0,8.4c0,2.651 -2.149,4.8 -4.8,4.8c-1.7,0 -3.2,0 -3.2,0l0,5.397c0,0.79 -0.313,1.547 -0.871,2.105c-0.558,0.558 -1.315,0.871 -2.105,0.871c-0.001,0 -0.002,0 -0.003,0c-0.789,0 -1.546,-0.313 -2.104,-0.871c-0.558,-0.558 -0.872,-1.315 -0.872,-2.105c0,-2.406 0,-5.397 0,-5.397l-20.09,0l0,8.373l-5.955,0l0,-8.373l-3.2,0Zm39.2,-14l-40,0l0,10l40,0l0,-10Zm-13,5c0,-0.552 -0.447,-1 -1,-1c-2.577,0 -9.423,0 -12,0c-0.552,0 -1,0.448 -1,1c0,0.553 0.448,1 1,1c2.577,0 9.423,0 12,0c0.553,0 1,-0.447 1,-1Zm17,-25.827c0,-1.273 -0.505,-2.494 -1.406,-3.394c-0.9,-0.9 -2.121,-1.406 -3.394,-1.406c-9.196,0 -29.203,0 -38.4,0c-1.273,0 -2.494,0.506 -3.394,1.406c-0.9,0.9 -1.406,2.121 -1.406,3.394c0,2.6 0,5.801 0,8.4c0,1.273 0.506,2.494 1.406,3.394c0.9,0.901 2.121,1.406 3.394,1.406c9.197,0 29.204,0 38.4,0c1.273,0 2.494,-0.505 3.394,-1.406c0.901,-0.9 1.406,-2.121 1.406,-3.394c0,-2.599 0,-5.8 0,-8.4Zm-44,-0.8l0,10l40,0l0,-10l-40,0Zm27,5c0,-0.552 -0.447,-1 -1,-1c-2.577,0 -9.423,0 -12,0c-0.552,0 -1,0.448 -1,1c0,0.553 0.448,1 1,1c2.577,0 9.423,0 12,0c0.553,0 1,-0.447 1,-1Z" style="fill:#616161;"/></g></svg>