<?xml version="1.0" encoding="UTF-8" standalone="no"?><!DOCTYPE svg PUBLIC "-//W3C//DTD SVG 1.1//EN" "http://www.w3.org/Graphics/SVG/1.1/DTD/svg11.dtd"><svg width="100%" height="100%" viewBox="0 0 65 65" version="1.1" xmlns="http://www.w3.org/2000/svg" xmlns:xlink="http://www.w3.org/1999/xlink" xml:space="preserve" xmlns:serif="http://www.serif.com/" style="fill-rule:evenodd;clip-rule:evenodd;stroke-linejoin:round;stroke-miterlimit:2;"><g id="ic_six"><rect x="0.694" y="0.91" width="64" height="64" style="fill:none;fill-rule:nonzero;"/><g><path d="M27.929,10.615c-0.53,-1.95 1.46,-2.71 2.76,-3.52c3.29,6.44 2.59,14.74 7.33,20.49c-0.08,-6.2 0.74,-12.34 1.14,-18.51c1.32,-1.03 3.64,-0.97 3.85,1.03c0.33,6.54 -0.16,13.14 0.6,19.67c4.39,-3.22 4.66,-9.27 7.69,-13.44c0.96,-1.27 2.76,-0.14 2.84,1.24c-1,4.87 -3.11,9.43 -4.39,14.22c-1.28,4.94 0.85,9.89 0.51,14.87c-0.17,2.54 -0.57,5.06 -0.85,7.6c-4.24,2.4 -8.88,4.19 -13.8,4.46c-1.72,-2.33 -3.84,-4.37 -6.43,-5.69c-4.39,-2.18 -7.7,-6.24 -12.55,-7.51c-1.76,-0.44 -4.29,1.29 -5.38,-0.8c0.75,-2.65 3.75,-4.11 6.35,-4.03c3.68,-0.12 6.68,3.17 10.45,2.23c1.04,-6.65 -3.58,-12.02 -5.94,-17.8c-1.15,-3.05 -2.8,-6.07 -2.9,-9.38c0.71,-1.5 1.73,-1.77 3.07,-0.82c2.99,4.76 4.28,11.08 9.32,14.23c-1.39,-6.14 -3.11,-12.25 -3.67,-18.54m7.07,21.45c-5.11,2.01 -6.79,9.36 -3.13,13.44c2.19,3.4 6.72,3.17 10.23,2.56c5.32,-1.79 6.88,-9.29 3.47,-13.48c-2.37,-3.16 -7.03,-4.29 -10.57,-2.52Z" style="fill:#616161;fill-rule:nonzero;"/><path d="M34.999,32.065c3.54,-1.77 8.2,-0.64 10.57,2.52c3.41,4.19 1.85,11.69 -3.47,13.48c-3.51,0.61 -8.04,0.84 -10.23,-2.56c-3.66,-4.08 -1.98,-11.43 3.13,-13.44m1.89,4.03c-2.47,1.05 -2.67,4.06 -1.97,6.31c1.95,2.28 6.63,2.48 7.6,-0.83c1.18,-3.33 -2.22,-7.14 -5.63,-5.48Z" style="fill:#a73a58;fill-rule:nonzero;"/><path d="M36.889,36.095c3.41,-1.66 6.81,2.15 5.63,5.48c-0.97,3.31 -5.65,3.11 -7.6,0.83c-0.7,-2.25 -0.5,-5.26 1.97,-6.31Z" style="fill:#c83a56;fill-rule:nonzero;"/></g></g></svg>