<?xml version="1.0" encoding="UTF-8" standalone="no"?><!DOCTYPE svg PUBLIC "-//W3C//DTD SVG 1.1//EN" "http://www.w3.org/Graphics/SVG/1.1/DTD/svg11.dtd"><svg width="100%" height="100%" viewBox="0 0 65 65" version="1.1" xmlns="http://www.w3.org/2000/svg" xmlns:xlink="http://www.w3.org/1999/xlink" xml:space="preserve" xmlns:serif="http://www.serif.com/" style="fill-rule:evenodd;clip-rule:evenodd;stroke-linejoin:round;stroke-miterlimit:2;"><g id="ic_seven"><rect x="0.694" y="0.91" width="64" height="64" style="fill:none;fill-rule:nonzero;"/><g><path d="M30.394,5.015c1.76,0.2 3.53,0.43 5.29,0.7c1.21,7.7 3.48,15.21 6.24,22.48c0.46,0.27 1.38,0.8 1.84,1.07c-0.39,-6.39 0.4,-12.74 0.84,-19.1c1.7,1.48 3.62,2.83 4.86,4.76c0.93,5.09 0.18,10.35 0.64,15.5c0.41,0.38 1.22,1.15 1.62,1.53c1.35,-1.98 2.55,-4.06 3.7,-6.16c1.08,6.5 0.84,13.43 -2.24,19.39c-4.24,8.84 -13.39,14.91 -23.14,15.62c-4.14,-2.71 -7.76,-6.31 -12.47,-8.05c-2.6,-1.11 -5.41,-0.2 -8.09,-0.1c-0.8,-3.92 3.22,-5.7 6.25,-6.66c5.23,-1.16 9.5,4.57 14.77,2.72c1.16,-5.86 -1.7,-11.13 -4.1,-16.22c-0.18,-0.49 -0.54,-1.48 -0.71,-1.98c0.86,-0.08 2.6,-0.25 3.46,-0.33c0.76,-0.75 1.52,-1.5 2.28,-2.25c1,1.39 2.14,2.74 3.9,3.16c-2.27,-8.55 -4.46,-17.22 -4.94,-26.08Zm-11.26,8.42c1.31,-0.51 2.85,-1.72 4.06,-0.29c1.55,1.62 2.15,3.88 3.1,5.86c-1.77,0.52 -3.47,1.23 -5.14,2l-0.12,-0.24c-1.18,-2.28 -1.68,-4.8 -1.9,-7.33Z" style="fill:#616161;fill-rule:nonzero;"/><path d="M25.384,28.085c1.42,-0.73 2.83,-1.46 4.26,-2.17c0.49,0.54 0.98,1.09 1.46,1.65l0.33,0.37c-0.76,0.75 -1.52,1.5 -2.28,2.25c-0.86,0.08 -2.6,0.25 -3.46,0.33c0.17,0.5 0.53,1.49 0.71,1.98c-0.72,-0.96 -1.43,-1.91 -2.15,-2.86c0.28,-0.39 0.85,-1.16 1.13,-1.55Zm-4.23,-7.08c1.67,-0.77 3.37,-1.48 5.14,-2l1.15,-0.34l-0.72,1.7c-1.16,1.49 -2.5,2.82 -3.81,4.17c-0.6,-1.18 -1.19,-2.35 -1.76,-3.53Z" style="fill:#a73a58;fill-rule:nonzero;"/><path d="M26.724,20.365c0.59,-0.05 1.79,-0.15 2.38,-0.2c0.66,0.68 1.32,1.36 1.99,2.04c0,1.79 0.01,3.57 0.01,5.36c-0.48,-0.56 -0.97,-1.11 -1.46,-1.65c-1.43,0.71 -2.84,1.44 -4.26,2.17c-0.28,0.39 -0.85,1.16 -1.13,1.55c-0.22,0.32 -0.67,0.96 -0.89,1.28l-0.02,-1.61c-0.48,-0.11 -1.44,-0.34 -1.92,-0.45c-0.46,-2.67 -0.29,-5.39 -0.39,-8.09l0.12,0.24c0.57,1.18 1.16,2.35 1.76,3.53c1.31,-1.35 2.65,-2.68 3.81,-4.17Z" style="fill:#c83a56;fill-rule:nonzero;"/></g></g></svg>