<?xml version="1.0" encoding="UTF-8" standalone="no"?><!DOCTYPE svg PUBLIC "-//W3C//DTD SVG 1.1//EN" "http://www.w3.org/Graphics/SVG/1.1/DTD/svg11.dtd"><svg width="100%" height="100%" viewBox="0 0 65 65" version="1.1" xmlns="http://www.w3.org/2000/svg" xmlns:xlink="http://www.w3.org/1999/xlink" xml:space="preserve" xmlns:serif="http://www.serif.com/" style="fill-rule:evenodd;clip-rule:evenodd;stroke-linejoin:round;stroke-miterlimit:2;"><g id="ic_two"><rect x="0.694" y="0.91" width="64" height="64" style="fill:none;fill-rule:nonzero;"/><g><path d="M23.854,10.556c4.43,-1.56 9.36,-3.47 13.98,-1.47c4.06,0.91 6.22,5.63 5.86,9.48c-0.18,3.07 1.22,5.94 1.3,8.98c-0.41,3.05 -2.81,5.25 -3.9,8.03c-0.08,2.5 -0.65,5.81 1.73,7.48c3.39,2.36 7.57,3.03 11.45,4.21c-4.71,5.59 -11.49,9.51 -18.82,10.16c-9.08,1.03 -18.69,-2.72 -24.34,-9.98c4.53,-1.12 9.16,-2.26 13.05,-4.96c0.53,-3.45 1.14,-7.48 -1.25,-10.41c-1.18,-1.53 -1.78,-3.37 -2.27,-5.21c1.59,-4.24 0.96,-8.83 1.69,-13.21c0.79,-0.6 1.6,-1.16 2.44,-1.69c-0.23,-0.35 -0.69,-1.06 -0.92,-1.41m1.81,35.12c-0.46,2.98 2.29,4.7 4.06,6.59c1.85,0 3.71,0.09 5.56,-0.12c5.1,-1.77 6.45,-9.26 2.06,-12.55c-4.39,-4.11 -12.8,-0.03 -11.68,6.08Z" style="fill:#616161;fill-rule:nonzero;"/><path d="M31.634,41.946c2.52,-1.01 5.52,1.84 4.4,4.38c-0.63,3.5 -7.13,3.04 -6.67,-0.73c-0.26,-1.7 0.45,-3.35 2.27,-3.65Z" style="fill:#c83a56;fill-rule:nonzero;"/><path d="M25.664,45.676c-1.12,-6.11 7.29,-10.19 11.68,-6.08c4.39,3.29 3.04,10.78 -2.06,12.55c-1.85,0.21 -3.71,0.12 -5.56,0.12c-1.77,-1.89 -4.52,-3.61 -4.06,-6.59m5.97,-3.73c-1.82,0.3 -2.53,1.95 -2.27,3.65c-0.46,3.77 6.04,4.23 6.67,0.73c1.12,-2.54 -1.88,-5.39 -4.4,-4.38Z" style="fill:#a73a58;fill-rule:nonzero;"/></g></g></svg>