<?xml version="1.0" encoding="UTF-8" standalone="no"?><!DOCTYPE svg PUBLIC "-//W3C//DTD SVG 1.1//EN" "http://www.w3.org/Graphics/SVG/1.1/DTD/svg11.dtd"><svg width="100%" height="100%" viewBox="0 0 65 65" version="1.1" xmlns="http://www.w3.org/2000/svg" xmlns:xlink="http://www.w3.org/1999/xlink" xml:space="preserve" xmlns:serif="http://www.serif.com/" style="fill-rule:evenodd;clip-rule:evenodd;stroke-linejoin:round;stroke-miterlimit:2;"><g id="ic_twelve"><rect x="0.694" y="0.91" width="64" height="64" style="fill:none;fill-rule:nonzero;"/><g><path d="M17.05,43.305c2.61,1.32 5.51,1.57 8.38,1.35c-1.41,5.21 -0.87,10.54 -0.51,15.84c-2.36,-0.76 -4.66,-1.71 -6.89,-2.81c0.04,-4.82 -0.49,-9.6 -0.98,-14.38Zm21.66,1.19c2.74,0.22 5.51,0.12 8.22,-0.36c-0.26,4.47 -1.18,8.91 -0.86,13.4c-2.08,1.18 -4.28,2.12 -6.54,2.87c-0.17,-2.11 -0.11,-4.22 0.2,-6.31c0.56,-3.25 -0.79,-6.39 -1.02,-9.6Zm-22.29,-34.49c3.9,-2.37 8.23,-3.98 12.76,-4.61c-1.16,5.52 -1.52,11.16 -2.54,16.7c-0.27,2.95 0.66,5.85 1,8.76c-2.38,-0.78 -4.92,-2.01 -7.47,-1.23c-1.66,0.68 -3.04,1.85 -4.46,2.9c0.83,-7.49 2.6,-15.03 0.71,-22.52Zm18.75,-4.68c4.44,0.87 8.77,2.34 12.62,4.79c-1.53,6.88 -0.78,14.02 0.54,20.87c-3.88,-1.96 -8.37,-2.05 -11.89,0.69c0.38,-4.12 1.65,-8.28 0.67,-12.41c-0.88,-4.62 -1.06,-9.33 -1.94,-13.94Z" style="fill:#616161;fill-rule:nonzero;"/><path d="M20.17,29.625c2.55,-0.78 5.09,0.45 7.47,1.23c0.14,0.05 0.41,0.14 0.54,0.19l-0.13,0.81c-0.59,4.15 -1.56,8.23 -2.32,12.35l-0.08,0.45l-0.22,0c-2.87,0.22 -5.77,-0.03 -8.38,-1.35c-0.13,-0.05 -0.37,-0.14 -0.49,-0.19l0.02,-0.75c0.27,-3.27 -0.17,-6.53 -1.13,-9.65l0.26,-0.19c1.42,-1.05 2.8,-2.22 4.46,-2.9Zm16.27,2.05c3.52,-2.74 8.01,-2.65 11.89,-0.69l-0.04,0.4c-0.45,4.25 -1.02,8.49 -1.36,12.75c-2.71,0.48 -5.48,0.58 -8.22,0.36c-0.9,-4.25 -1.93,-8.48 -2.27,-12.82Zm-15.28,1.83c-2.17,0.68 -2.715,2.88 -2.172,4.71c0.544,1.83 2.177,3.29 4.362,2.49c4.53,-1.3 2.28,-8.77 -2.19,-7.2Zm20.87,-0.08c-1.7,0.36 -3.37,1.77 -3.25,3.64c-0.13,2.82 3.69,4.9 5.94,3.07c2.69,-1.96 0.81,-7.34 -2.69,-6.71Z" style="fill:#a73a58;fill-rule:nonzero;"/><path d="M21.16,33.505c2.235,-0.785 3.915,0.69 4.47,2.524c0.555,1.834 -0.015,4.026 -2.28,4.676c-4.37,1.6 -6.53,-5.84 -2.19,-7.2Zm20.87,-0.08c3.5,-0.63 5.38,4.75 2.69,6.71c-2.25,1.83 -6.07,-0.25 -5.94,-3.07c-0.12,-1.87 1.55,-3.28 3.25,-3.64Z" style="fill:#c83a56;fill-rule:nonzero;"/><path d="M36.4,31.325l0.04,0.35c0.34,4.34 1.37,8.57 2.27,12.82c-1.47,-1.96 -3.95,-3.64 -3.7,-6.38c-0.27,-2.37 0.56,-4.63 1.39,-6.79Zm-8.35,0.53c1.825,1.895 2.377,4.393 1.907,6.711c-0.47,2.319 -1.962,4.459 -4.227,5.639c0.76,-4.12 1.73,-8.2 2.32,-12.35Zm20.24,-0.47c1.02,2.04 2.41,4.14 2.04,6.54c-0.18,2.48 -1.98,4.33 -3.4,6.21c0.34,-4.26 0.91,-8.5 1.36,-12.75Zm-31.71,10.98c-1.22,-1.325 -1.57,-2.935 -1.582,-4.615c-0.011,-1.68 0.317,-3.43 0.452,-5.035c0.96,3.12 1.4,6.38 1.13,9.65Z" style="fill:#f37c8e;fill-rule:nonzero;"/></g></g></svg>