<?xml version="1.0" encoding="UTF-8" standalone="no"?><!DOCTYPE svg PUBLIC "-//W3C//DTD SVG 1.1//EN" "http://www.w3.org/Graphics/SVG/1.1/DTD/svg11.dtd"><svg width="100%" height="100%" viewBox="0 0 65 65" version="1.1" xmlns="http://www.w3.org/2000/svg" xmlns:xlink="http://www.w3.org/1999/xlink" xml:space="preserve" xmlns:serif="http://www.serif.com/" style="fill-rule:evenodd;clip-rule:evenodd;stroke-linejoin:round;stroke-miterlimit:2;"><g id="ic_ten"><rect x="0.694" y="0.91" width="64" height="64" style="fill:none;fill-rule:nonzero;"/><g><path d="M10.443,46.075c9.28,-0.84 17.39,-5.94 25.1,-10.74c1.16,2.92 2.33,6.4 5.5,7.69c4.25,1.24 9.53,1.05 12.34,-2.88l0.76,-0.89c1.33,3.73 1.87,8.51 -0.97,11.69c-3.9,3.58 -9.4,1.3 -14.04,1.38c-7.08,1.87 -14.44,2.05 -21.71,2.25c-2.82,0.02 -5.55,-1.25 -7.26,-3.51c0.12,-1.66 0.22,-3.33 0.28,-4.99Zm30.35,-34.83c5.69,1.91 10.86,5.42 14.35,10.36c-0.43,2.39 -0.83,4.8 -1.23,7.2l-0.5,-0.53c-3.48,-3.72 -9.08,-4.99 -13.51,-2.11c0.37,-4.97 0.68,-9.94 0.89,-14.92Z" style="fill:#616161;fill-rule:nonzero;"/><path d="M39.903,26.165c4.43,-2.88 10.03,-1.61 13.51,2.11c-0.19,3.95 -0.22,7.91 -0.03,11.87c-2.81,3.93 -8.09,4.12 -12.34,2.88c-3.17,-1.29 -4.34,-4.77 -5.5,-7.69l-0.15,-0.39c0.93,-1.42 1.87,-2.84 2.93,-4.18c0.37,-1.37 0.55,-2.78 0.65,-4.19c0.23,-0.1 0.69,-0.31 0.93,-0.41m3.73,4.04c-2.91,1.17 -3.52,5.45 -1.17,7.48c2.86,3.28 9.09,-0.44 7.56,-4.53c-0.68,-2.7 -3.87,-4.41 -6.39,-2.95Z" style="fill:#a73a58;fill-rule:nonzero;"/><path d="M43.633,30.205c2.52,-1.46 5.71,0.25 6.39,2.95c1.53,4.09 -4.7,7.81 -7.56,4.53c-2.35,-2.03 -1.74,-6.31 1.17,-7.48Z" style="fill:#c83a56;fill-rule:nonzero;"/><path d="M53.413,28.275l0.5,0.53c1.57,3.13 1.58,7.23 0.23,10.45l-0.76,0.89c-0.19,-3.96 -0.16,-7.92 0.03,-11.87Z" style="fill:#f37c8e;fill-rule:nonzero;"/></g></g></svg>