<?xml version="1.0" encoding="UTF-8" standalone="no"?><!DOCTYPE svg PUBLIC "-//W3C//DTD SVG 1.1//EN" "http://www.w3.org/Graphics/SVG/1.1/DTD/svg11.dtd"><svg width="100%" height="100%" viewBox="0 0 65 64" version="1.1" xmlns="http://www.w3.org/2000/svg" xmlns:xlink="http://www.w3.org/1999/xlink" xml:space="preserve" xmlns:serif="http://www.serif.com/" style="fill-rule:evenodd;clip-rule:evenodd;stroke-linejoin:round;stroke-miterlimit:2;"><g id="ic_video_on"><rect x="0.694" y="0" width="64" height="64" style="fill:none;"/><path d="M46.028,28l0,-9.333c0,-1.467 -1.2,-2.667 -2.667,-2.667l-32,0c-1.467,0 -2.667,1.2 -2.667,2.667l0,26.666c0,1.467 1.2,2.667 2.667,2.667l32,0c1.467,0 2.667,-1.2 2.667,-2.667l0,-9.333l6.106,6.107c1.68,1.68 4.56,0.48 4.56,-1.894l0,-16.453c0,-2.373 -2.88,-3.573 -4.56,-1.893l-6.106,6.133Z" style="fill:#616161;"/></g></svg>