<?xml version="1.0" encoding="UTF-8" standalone="no"?><!DOCTYPE svg PUBLIC "-//W3C//DTD SVG 1.1//EN" "http://www.w3.org/Graphics/SVG/1.1/DTD/svg11.dtd"><svg width="100%" height="100%" viewBox="0 0 65 64" version="1.1" xmlns="http://www.w3.org/2000/svg" xmlns:xlink="http://www.w3.org/1999/xlink" xml:space="preserve" xmlns:serif="http://www.serif.com/" style="fill-rule:evenodd;clip-rule:evenodd;stroke-linejoin:round;stroke-miterlimit:2;"><g id="ic_video_off"><rect x="0.694" y="0" width="64" height="64" style="fill:none;"/><path d="M13.208,16l-2.381,-2.381c-0.78,-0.781 -0.78,-2.048 0,-2.828l0.707,-0.708c0.781,-0.78 2.048,-0.78 2.829,0l41.758,41.759c0.781,0.781 0.781,2.048 0,2.828l-0.707,0.708c-0.78,0.78 -2.048,0.78 -2.828,0l-7.796,-7.796c-0.414,0.264 -0.904,0.418 -1.429,0.418l-32,0c-1.467,0 -2.667,-1.2 -2.667,-2.667l0,-26.666c0,-1.467 1.2,-2.667 2.667,-2.667l1.847,0Zm4,4l-4.514,0l0,24l28.514,0l-24,-24Zm10.142,-4l16.011,0c1.467,0 2.667,1.2 2.667,2.667l0,9.333l6.106,-6.133c1.68,-1.68 4.56,-0.48 4.56,1.893l0,16.453c0,1.517 -1.176,2.555 -2.463,2.667l-12.203,-12.203l0,-10.677l-10.678,0l-4,-4Z" style="fill:#616161;"/></g></svg>