<?xml version="1.0" encoding="UTF-8" standalone="no"?><!DOCTYPE svg PUBLIC "-//W3C//DTD SVG 1.1//EN" "http://www.w3.org/Graphics/SVG/1.1/DTD/svg11.dtd"><svg width="100%" height="100%" viewBox="0 0 718 224" version="1.1" xmlns="http://www.w3.org/2000/svg" xmlns:xlink="http://www.w3.org/1999/xlink" xml:space="preserve" xmlns:serif="http://www.serif.com/" style="fill-rule:evenodd;clip-rule:evenodd;stroke-linejoin:round;stroke-miterlimit:2;"><g id="logo-with-title-right---white" serif:id="logo with title right - white"><rect id="bound" x="0" y="0" width="717.481" height="224" style="fill:none;"/><g id="logo"><path d="M35.362,88.291l25.165,0c0,41.666 33.827,75.493 75.493,75.493c41.665,0 75.493,-33.827 75.493,-75.493l25.164,0c0,55.555 -45.103,100.658 -100.657,100.658c-55.555,0 -100.658,-45.103 -100.658,-100.658Z" style="fill:#2fc9b9;"/><path d="M59.967,88.291l0.56,0c0,41.666 33.827,75.493 75.493,75.493c41.665,0 75.493,-33.827 75.493,-75.493l0.56,0c1.95,6.87 2.995,14.119 2.995,21.61c0,43.627 -35.421,79.048 -79.048,79.048l-0.511,-0.002c-43.393,-0.275 -78.537,-35.589 -78.537,-79.046c0,-7.491 1.044,-14.74 2.995,-21.61Z" style="fill:#bd25b4;"/><path d="M81.257,124.354c6.863,-15.242 19.952,-27.305 36.553,-32.585c5.669,2.109 11.806,3.262 18.21,3.262c6.403,0 12.54,-1.153 18.21,-3.262c16.6,5.28 29.689,17.343 36.552,32.585l-109.525,0Zm54.763,-89.303c15.228,0 27.591,12.364 27.591,27.592c0,15.228 -12.363,27.591 -27.591,27.591c-15.229,0 -27.592,-12.363 -27.592,-27.591c0,-15.228 12.363,-27.592 27.592,-27.592Z" style="fill:#edcc09;"/></g><g transform="matrix(3.89736,0,0,3.89736,-4794.63,-364.538)"><text x="1298.24px" y="130px" style="font-family:'AlegreyaSansSC-Bold', 'Alegreya Sans SC';font-weight:700;font-size:24px;fill:#fff;">Live</text><text x="1338.73px" y="130px" style="font-family:'AlegreyaSansSC-Medium', 'Alegreya Sans SC';font-weight:500;font-size:24px;fill:#fff;">MyLife</text></g></g></svg>