<?xml version="1.0" encoding="UTF-8" standalone="no"?><!DOCTYPE svg PUBLIC "-//W3C//DTD SVG 1.1//EN" "http://www.w3.org/Graphics/SVG/1.1/DTD/svg11.dtd"><svg width="100%" height="100%" viewBox="0 0 288 288" version="1.1" xmlns="http://www.w3.org/2000/svg" xmlns:xlink="http://www.w3.org/1999/xlink" xml:space="preserve" xmlns:serif="http://www.serif.com/" style="fill-rule:evenodd;clip-rule:evenodd;stroke-linejoin:round;stroke-miterlimit:2;"><g id="logo-with-title-below---black" serif:id="logo with title below - black"><rect id="bound" x="0" y="0" width="288" height="288" style="fill:none;"/><g id="logo-with-title-below" serif:id="logo with title below"><g id="logo"><path d="M43.343,83.094l25.164,0c0,41.666 33.827,75.493 75.493,75.493c41.666,0 75.493,-33.827 75.493,-75.493l25.164,0c0,55.555 -45.103,100.658 -100.657,100.658c-55.554,0 -100.657,-45.103 -100.657,-100.658Z" style="fill:#2fc9b9;"/><path d="M67.947,83.094l0.56,0c0,41.666 33.827,75.493 75.493,75.493c41.666,0 75.493,-33.827 75.493,-75.493l0.56,0c1.951,6.87 2.995,14.119 2.995,21.61c0,43.627 -35.42,79.048 -79.048,79.048l-0.511,-0.002c-43.393,-0.275 -78.537,-35.589 -78.537,-79.046c0,-7.491 1.044,-14.74 2.995,-21.61Z" style="fill:#bd25b4;"/><path d="M89.237,119.157c6.863,-15.242 19.953,-27.305 36.553,-32.585c5.67,2.109 11.806,3.262 18.21,3.262c6.404,0 12.54,-1.153 18.21,-3.262c16.6,5.28 29.69,17.343 36.553,32.585l-109.526,0Zm54.763,-89.303c15.228,0 27.591,12.364 27.591,27.592c0,15.228 -12.363,27.591 -27.591,27.591c-15.228,0 -27.591,-12.363 -27.591,-27.591c0,-15.228 12.363,-27.592 27.591,-27.592Z" style="fill:#edcc09;"/></g><g><path d="M36.842,252.249l-0.525,5.897l-20.317,0l0.409,-11.209l-0.409,-26.389l8.057,0l-0.467,25.688l0.175,5.371l12.61,0l0.467,0.642Z" style="fill:#212121;fill-rule:nonzero;"/><path d="M48.285,248.688l0.292,9.458l-7.356,0l0.291,-8.757l-0.291,-20.726l7.472,0l-0.408,20.025Z" style="fill:#212121;fill-rule:nonzero;"/><path d="M72.513,258.146l-8.816,0l-9.341,-29.483l7.415,0l0.875,4.262l5.371,18.507l0.467,0l6.247,-18.098l0.817,-4.671l7.24,0l-10.275,29.483Z" style="fill:#212121;fill-rule:nonzero;"/><path d="M108.067,252.191l0.467,0.467l-0.526,5.488l-20.2,0l0.292,-8.757l-0.292,-20.726l20.492,0l0.409,0.584l-0.467,5.43l-7.59,-0.292l-5.488,0l-0.116,5.955l5.254,0.058l5.079,-0.175l0.409,0.525l-0.467,5.546l-5.546,-0.175l-4.846,0l-0.058,2.569l0.116,3.736l5.138,0l7.94,-0.233Z" style="fill:#212121;fill-rule:nonzero;"/><path d="M153.195,258.146l-5.371,0l-0.759,-11.385l-1.751,-16.93l-0.409,0l-9.633,24.17l-4.787,0l-8.932,-24.17l-0.526,0l-1.751,16.405l-0.934,11.91l-5.08,0l3.912,-37.481l6.889,0l1.751,5.605l7.181,19.908l0.467,0l7.59,-20.083l1.751,-5.43l6.831,0l3.561,37.481Z" style="fill:#212121;fill-rule:nonzero;"/><path d="M172.636,249.972l0.233,8.174l-5.604,0l0.292,-8.174l-0.059,-1.634l-9.924,-19.441l6.013,0l0.642,1.868l5.838,11.618l0.409,0l6.422,-11.384l0.817,-2.102l5.896,0l-10.917,19.324l-0.058,1.751Z" style="fill:#212121;fill-rule:nonzero;"/><path d="M209.182,253.65l-0.467,4.496l-19.266,0l0.409,-11.268l-0.409,-26.213l6.189,0l-0.35,25.688l0.116,6.772l13.37,0l0.408,0.525Z" style="fill:#212121;fill-rule:nonzero;"/><path d="M219.516,248.863l0.233,9.283l-5.604,0l0.233,-8.757l-0.233,-20.492l5.663,0l-0.292,19.966Z" style="fill:#212121;fill-rule:nonzero;"/><path d="M235.045,233.392l-0.117,8.407l4.671,0.058l5.196,-0.175l0.408,0.467l-0.408,4.262l-5.663,-0.117l-4.262,0.059l-0.059,2.51l0.234,9.283l-5.605,0l0.234,-8.757l-0.234,-20.492l17.865,0l0.35,0.467l-0.467,4.262l-7.297,-0.292l-4.846,0.058Z" style="fill:#212121;fill-rule:nonzero;"/><path d="M271.533,253.475l0.409,0.409l-0.467,4.262l-18.741,0l0.234,-8.757l-0.234,-20.492l18.916,0l0.35,0.467l-0.409,4.262l-7.414,-0.292l-5.838,0.058l-0.117,7.59l5.605,0.058l5.079,-0.175l0.292,0.467l-0.351,4.32l-5.487,-0.175l-5.196,0.058l-0.059,3.328l0.117,4.787l5.43,0.059l7.881,-0.234Z" style="fill:#212121;fill-rule:nonzero;"/></g></g></g></svg>